<svg id="svg" version="1.1" xmlns="http://www.w3.org/2000/svg" xmlns:xlink="http://www.w3.org/1999/xlink" width="400" height="249.718785151856" viewBox="0, 0, 400,249.718785151856"><g id="svgg"><path id="path0" d="M175.837 0.383 C 175.660 0.594,175.375 0.924,175.203 1.115 C 174.532 1.864,174.813 4.323,175.670 5.199 L 176.449 5.996 179.403 5.996 C 181.102 5.996,182.422 6.102,182.511 6.246 C 182.611 6.409,188.630 6.496,199.750 6.496 C 210.871 6.496,216.889 6.409,216.989 6.246 C 217.079 6.101,218.481 5.996,220.347 5.996 L 223.551 5.996 224.330 5.199 C 225.187 4.322,225.464 1.901,224.797 1.105 C 224.625 0.900,224.336 0.567,224.155 0.366 C 223.642 -0.202,176.315 -0.185,175.837 0.383 M158.240 19.731 C 146.214 19.871,145.619 19.940,146.077 21.135 C 146.151 21.328,146.088 21.487,145.936 21.487 C 145.764 21.487,145.659 22.056,145.659 22.986 C 145.659 23.923,145.764 24.485,145.938 24.485 C 146.094 24.485,146.159 24.705,146.086 24.985 C 146.014 25.260,146.045 25.430,146.154 25.362 C 146.263 25.295,146.490 25.406,146.658 25.609 C 146.827 25.812,147.064 25.917,147.186 25.841 C 147.308 25.766,147.408 25.823,147.408 25.969 C 147.408 26.151,150.534 26.234,157.402 26.234 C 163.898 26.234,167.395 26.321,167.395 26.483 C 167.395 26.829,221.273 26.829,221.487 26.483 C 221.587 26.321,227.069 26.234,237.117 26.234 C 245.905 26.234,252.592 26.138,252.592 26.013 C 252.592 25.809,253.509 25.406,253.878 25.449 C 253.967 25.459,253.982 25.246,253.912 24.976 C 253.840 24.704,253.908 24.485,254.062 24.485 C 254.236 24.485,254.341 23.923,254.341 22.986 C 254.341 22.056,254.236 21.487,254.064 21.487 C 253.912 21.487,253.852 21.320,253.930 21.116 C 254.066 20.762,253.204 20.064,252.780 20.184 C 252.676 20.213,252.592 20.152,252.592 20.047 C 252.592 19.943,233.985 19.900,211.243 19.951 C 180.974 20.019,169.894 19.970,169.894 19.766 C 169.894 19.613,169.809 19.513,169.706 19.544 C 169.603 19.575,164.443 19.659,158.240 19.731 M260.404 40.162 C 260.249 40.565,160.400 40.628,160.400 40.225 C 160.400 40.060,153.126 39.975,139.077 39.975 C 115.811 39.975,116.927 39.908,116.927 41.306 C 116.927 41.536,116.814 41.724,116.677 41.724 C 116.540 41.724,116.427 42.286,116.427 42.973 C 116.427 43.660,116.532 44.222,116.660 44.222 C 116.788 44.222,116.928 44.464,116.972 44.759 C 117.210 46.358,117.025 46.338,132.623 46.424 C 140.991 46.470,146.880 46.598,147.021 46.736 C 147.351 47.063,230.606 47.053,230.606 46.727 C 230.606 46.570,239.706 46.458,256.072 46.414 C 284.341 46.339,282.779 46.434,283.028 44.759 C 283.072 44.464,283.212 44.222,283.340 44.222 C 283.468 44.222,283.573 43.660,283.573 42.973 C 283.573 42.286,283.460 41.724,283.323 41.724 C 283.186 41.724,283.073 41.547,283.073 41.331 C 283.073 40.121,282.960 40.108,271.379 39.975 C 262.832 39.877,260.498 39.917,260.404 40.162 M89.444 59.963 C 89.444 60.100,89.270 60.212,89.057 60.212 C 87.370 60.212,86.659 63.534,87.993 65.183 C 89.083 66.532,88.110 66.468,110.079 66.634 C 121.415 66.720,130.747 66.884,130.818 66.999 C 130.987 67.272,239.101 67.272,239.101 66.999 C 239.101 66.885,255.176 66.718,274.824 66.630 C 300.949 66.512,310.665 66.392,310.989 66.183 C 313.275 64.705,313.240 60.212,310.943 60.212 C 310.730 60.212,310.556 60.100,310.556 59.963 C 310.556 59.806,309.015 59.713,306.433 59.713 C 303.852 59.713,302.311 59.806,302.311 59.963 C 302.311 60.126,297.856 60.212,289.444 60.212 C 281.033 60.212,276.577 60.299,276.577 60.462 C 276.577 60.628,255.928 60.712,215.130 60.712 C 174.435 60.712,153.631 60.628,153.529 60.462 C 153.428 60.299,145.245 60.212,129.794 60.212 C 114.343 60.212,106.160 60.126,106.059 59.963 C 105.961 59.804,102.891 59.713,97.674 59.713 C 92.354 59.713,89.444 59.801,89.444 59.963 M59.026 80.844 C 58.180 81.750,58.053 82.277,58.248 84.072 C 58.336 84.888,59.543 86.196,60.207 86.196 C 60.430 86.196,60.719 86.302,60.849 86.431 C 60.992 86.573,71.215 86.738,86.508 86.845 C 100.490 86.944,111.930 87.119,111.930 87.235 C 111.930 87.351,142.061 87.445,178.888 87.445 C 216.053 87.445,245.846 87.350,245.846 87.231 C 245.846 87.112,266.714 86.933,292.306 86.830 C 328.356 86.686,338.970 86.575,339.673 86.333 C 341.113 85.838,341.757 84.906,341.840 83.198 C 341.886 82.231,341.650 81.624,340.929 80.859 L 340.071 79.950 331.310 79.950 C 325.635 79.950,322.548 80.038,322.548 80.200 C 322.548 80.364,317.390 80.450,307.573 80.450 C 297.858 80.450,292.542 80.537,292.442 80.700 C 292.340 80.865,267.668 80.949,219.238 80.949 C 170.808 80.949,146.136 80.865,146.034 80.700 C 145.933 80.536,137.573 80.450,121.769 80.450 C 105.760 80.450,97.711 80.366,97.814 80.200 C 97.916 80.034,91.553 79.954,78.903 79.962 L 59.838 79.974 59.026 80.844 M31.355 99.938 C 31.443 100.080,31.227 100.187,30.853 100.187 C 29.673 100.187,28.899 101.620,29.008 103.599 C 29.073 104.766,29.816 105.934,30.494 105.934 C 30.624 105.934,30.731 106.046,30.731 106.184 C 30.731 106.341,32.475 106.433,35.463 106.433 C 38.348 106.433,40.256 106.531,40.350 106.683 C 40.449 106.844,44.544 106.933,51.816 106.933 C 58.037 106.933,63.190 106.996,63.267 107.073 C 63.343 107.149,70.437 107.202,79.029 107.191 C 89.483 107.176,94.705 107.254,94.811 107.426 C 95.031 107.782,252.592 107.785,252.592 107.429 C 252.592 107.259,261.018 107.198,278.201 107.242 C 292.286 107.278,303.810 107.224,303.810 107.121 C 303.810 107.017,314.203 106.933,326.906 106.933 C 342.034 106.933,350.055 106.847,350.156 106.683 C 350.255 106.524,353.740 106.433,359.790 106.433 C 365.943 106.433,369.269 106.346,369.269 106.184 C 369.269 106.046,369.377 105.934,369.508 105.934 C 369.639 105.934,370.032 105.648,370.382 105.298 C 371.780 103.900,370.883 100.187,369.147 100.187 C 368.773 100.187,368.557 100.080,368.645 99.938 C 368.744 99.777,367.778 99.688,365.926 99.688 C 364.280 99.688,362.987 99.794,362.898 99.938 C 362.799 100.098,358.820 100.187,351.780 100.187 C 344.741 100.187,340.761 100.277,340.662 100.437 C 340.562 100.599,335.288 100.687,325.657 100.687 C 315.923 100.687,310.806 100.773,310.806 100.937 C 310.806 101.103,282.032 101.187,224.984 101.187 C 167.937 101.187,139.163 101.103,139.163 100.937 C 139.163 100.772,130.752 100.687,114.428 100.687 C 98.105 100.687,89.694 100.602,89.694 100.437 C 89.694 100.272,81.829 100.187,66.598 100.187 C 51.470 100.187,43.449 100.101,43.348 99.938 C 43.252 99.782,40.925 99.688,37.197 99.688 C 33.263 99.688,31.254 99.774,31.355 99.938 M1.499 120.175 C 1.499 120.312,1.379 120.425,1.231 120.425 C -0.098 120.425,-0.496 124.269,0.713 125.425 C 1.143 125.835,1.608 126.171,1.747 126.171 C 1.885 126.171,1.999 126.284,1.999 126.421 C 1.999 126.583,5.242 126.671,11.228 126.671 C 17.112 126.671,20.514 126.761,20.612 126.921 C 20.712 127.082,25.098 127.171,32.952 127.171 C 39.655 127.171,45.198 127.230,45.271 127.303 C 45.343 127.375,52.685 127.430,61.585 127.424 C 72.129 127.417,77.873 127.501,78.071 127.666 C 78.496 128.018,259.678 128.023,259.796 127.670 C 259.853 127.500,268.389 127.418,285.630 127.423 C 299.792 127.426,311.438 127.371,311.509 127.300 C 311.580 127.229,322.020 127.171,334.707 127.171 C 349.920 127.171,357.776 127.085,357.776 126.921 C 357.776 126.756,364.647 126.671,377.889 126.671 C 391.131 126.671,398.001 126.585,398.001 126.421 C 398.001 126.284,398.115 126.171,398.253 126.171 C 398.392 126.171,398.854 125.862,399.280 125.484 C 400.579 124.332,400.088 120.425,398.644 120.425 C 398.428 120.425,398.251 120.312,398.251 120.175 C 398.251 120.014,395.466 119.925,390.396 119.925 C 385.428 119.925,382.484 120.017,382.386 120.175 C 382.287 120.336,378.099 120.425,370.643 120.425 C 363.187 120.425,359.000 120.514,358.901 120.675 C 358.800 120.837,353.282 120.924,343.161 120.924 C 333.040 120.924,327.521 121.012,327.420 121.174 C 327.319 121.339,316.758 121.424,296.550 121.424 C 276.239 121.424,265.834 121.509,265.834 121.674 C 265.834 121.839,257.344 121.924,240.864 121.924 C 224.487 121.924,215.841 121.838,215.740 121.674 C 215.638 121.509,201.455 121.424,174.001 121.424 C 146.445 121.424,132.417 121.340,132.417 121.174 C 132.417 121.009,123.803 120.924,107.073 120.924 C 90.446 120.924,81.675 120.838,81.574 120.675 C 81.473 120.511,73.451 120.425,58.324 120.425 C 43.093 120.425,35.228 120.340,35.228 120.175 C 35.228 120.011,29.440 119.925,18.364 119.925 C 7.287 119.925,1.499 120.011,1.499 120.175 M29.568 141.394 C 28.348 142.505,28.270 144.928,29.417 146.096 C 30.193 146.887,30.271 146.908,32.346 146.908 C 33.601 146.908,34.478 147.011,34.478 147.158 C 34.478 147.320,37.930 147.408,44.333 147.408 C 50.632 147.408,54.242 147.498,54.341 147.658 C 54.441 147.819,59.241 147.908,67.922 147.908 C 78.331 147.908,81.419 147.978,81.661 148.220 C 82.099 148.658,270.454 148.634,270.892 148.196 C 271.106 147.982,277.264 147.908,294.741 147.908 C 310.281 147.908,318.301 147.823,318.301 147.658 C 318.301 147.493,326.254 147.408,341.661 147.408 C 357.068 147.408,365.022 147.323,365.022 147.158 C 365.022 147.009,365.978 146.908,367.391 146.908 C 369.726 146.908,369.772 146.897,370.593 146.096 C 371.829 144.893,371.689 142.404,370.326 141.349 L 369.439 140.662 359.256 140.662 C 352.802 140.662,349.043 140.752,348.990 140.908 C 348.937 141.064,344.478 141.158,336.727 141.167 C 329.090 141.175,324.547 141.270,324.547 141.421 C 324.547 141.573,317.482 141.661,305.309 141.661 C 292.650 141.661,286.071 141.747,286.071 141.911 C 286.071 142.077,267.879 142.161,231.995 142.161 C 196.213 142.161,177.866 142.077,177.764 141.911 C 177.662 141.747,167.731 141.661,148.782 141.661 C 129.833 141.661,119.902 141.576,119.800 141.412 C 119.699 141.248,111.849 141.162,97.064 141.162 C 82.280 141.162,74.430 141.076,74.329 140.912 C 74.227 140.748,66.610 140.665,52.265 140.669 L 30.356 140.677 29.568 141.394 M59.713 161.149 C 59.713 161.287,59.558 161.399,59.369 161.399 C 59.179 161.399,58.882 161.570,58.708 161.780 C 58.534 161.989,58.335 162.104,58.265 162.034 C 57.967 161.735,57.464 163.311,57.464 164.542 C 57.464 165.740,57.556 165.972,58.347 166.762 L 59.230 167.645 63.329 167.645 C 65.792 167.645,67.490 167.745,67.583 167.895 C 67.682 168.056,71.819 168.145,79.174 168.145 C 85.464 168.145,90.669 168.204,90.741 168.276 C 90.813 168.348,99.142 168.403,109.250 168.398 C 121.351 168.392,127.655 168.474,127.711 168.640 C 127.829 168.993,220.393 168.999,220.611 168.646 C 220.718 168.474,229.869 168.411,248.798 168.455 C 264.214 168.491,276.827 168.435,276.827 168.332 C 276.827 168.229,287.108 168.145,299.673 168.145 C 314.634 168.145,322.572 168.059,322.673 167.895 C 322.772 167.736,326.090 167.645,331.807 167.645 C 336.837 167.645,340.787 167.548,340.787 167.425 C 340.787 167.303,340.996 167.149,341.252 167.082 C 343.031 166.617,342.942 162.347,341.139 161.640 C 340.670 161.456,340.287 161.214,340.287 161.103 C 340.287 160.991,339.107 160.899,337.664 160.899 C 336.120 160.899,335.041 161.000,335.041 161.144 C 335.041 161.399,326.708 161.545,298.822 161.779 C 289.419 161.859,283.622 161.999,283.469 162.153 C 283.126 162.495,163.235 162.491,163.023 162.149 C 162.922 161.985,154.526 161.899,138.649 161.899 C 122.668 161.899,114.428 161.814,114.428 161.649 C 114.428 161.484,106.767 161.399,91.943 161.399 C 77.118 161.399,69.457 161.314,69.457 161.149 C 69.457 160.991,67.666 160.899,64.585 160.899 C 61.503 160.899,59.713 160.991,59.713 161.149 M87.945 181.886 C 87.945 182.024,87.825 182.136,87.677 182.136 C 87.279 182.136,86.696 182.794,86.696 183.243 C 86.696 183.459,86.583 183.635,86.446 183.635 C 86.088 183.635,86.137 186.037,86.508 186.690 C 87.457 188.357,87.596 188.382,95.951 188.382 C 100.897 188.382,103.412 188.468,103.310 188.632 C 103.208 188.798,108.300 188.882,118.396 188.882 C 126.779 188.882,133.689 188.966,133.753 189.069 C 133.934 189.363,281.629 188.927,281.925 188.631 C 282.084 188.471,287.433 188.382,296.868 188.382 C 313.099 188.382,312.494 188.444,313.492 186.690 C 313.863 186.037,313.912 183.635,313.554 183.635 C 313.417 183.635,313.304 183.459,313.304 183.243 C 313.304 182.794,312.721 182.136,312.323 182.136 C 312.175 182.136,312.055 182.024,312.055 181.886 C 312.055 181.547,301.647 181.547,301.437 181.886 C 301.337 182.048,296.812 182.136,288.680 182.136 C 280.445 182.136,276.077 182.223,276.077 182.386 C 276.077 182.552,255.803 182.636,215.755 182.636 C 175.809 182.636,155.380 182.551,155.278 182.386 C 155.177 182.222,147.239 182.136,132.278 182.136 C 117.213 182.136,109.432 182.051,109.432 181.886 C 109.432 181.724,105.684 181.636,98.688 181.636 C 91.693 181.636,87.945 181.724,87.945 181.886 M115.865 203.195 C 114.263 204.567,114.660 207.627,116.535 208.363 C 117.013 208.550,117.346 208.797,117.276 208.912 C 117.205 209.026,122.022 209.119,127.980 209.119 C 134.904 209.119,138.904 209.210,139.064 209.370 C 139.523 209.830,282.823 209.327,282.823 208.867 C 282.823 208.731,282.992 208.620,283.198 208.620 C 283.404 208.620,283.573 208.507,283.573 208.370 C 283.573 208.232,283.713 208.119,283.885 208.118 C 285.270 208.111,285.477 204.471,284.162 203.231 L 283.253 202.374 274.668 202.374 C 269.112 202.374,266.084 202.462,266.084 202.623 C 266.084 202.788,258.463 202.873,243.723 202.873 C 228.982 202.873,221.362 202.958,221.362 203.123 C 221.362 203.266,220.612 203.373,219.613 203.373 C 218.613 203.373,217.864 203.266,217.864 203.123 C 217.864 202.958,206.251 202.873,183.525 202.873 C 160.902 202.873,149.134 202.788,149.032 202.623 C 148.931 202.461,143.272 202.377,132.840 202.383 L 116.802 202.392 115.865 203.195 M144.646 223.923 C 143.831 224.691,143.789 224.812,143.861 226.192 C 143.985 228.582,144.804 229.276,147.745 229.485 C 150.604 229.688,244.427 229.685,250.219 229.482 L 254.466 229.333 255.267 228.557 C 256.528 227.335,256.570 225.070,255.354 223.923 L 254.493 223.111 241.425 223.111 C 232.880 223.111,228.357 223.197,228.357 223.360 C 228.357 223.525,222.199 223.610,210.383 223.610 C 198.670 223.610,192.355 223.523,192.255 223.360 C 192.154 223.197,184.065 223.111,168.804 223.111 L 145.507 223.111 144.646 223.923 M174.891 243.598 C 174.891 243.735,174.547 243.848,174.126 243.848 C 173.681 243.848,173.426 243.952,173.517 244.097 C 173.601 244.235,173.506 244.347,173.305 244.347 C 173.062 244.347,172.983 244.515,173.069 244.847 C 173.142 245.126,173.077 245.347,172.921 245.347 C 172.744 245.347,172.642 245.941,172.642 246.971 C 172.642 248.041,172.741 248.595,172.934 248.595 C 173.094 248.595,173.154 248.666,173.067 248.753 C 171.855 249.964,224.597 250.591,226.423 249.386 C 226.802 249.136,227.036 248.856,226.944 248.763 C 226.851 248.670,226.906 248.595,227.066 248.595 C 227.442 248.595,227.465 245.443,227.091 245.211 C 226.944 245.120,226.884 244.889,226.958 244.697 C 227.036 244.495,226.937 244.347,226.725 244.347 C 226.524 244.347,226.359 244.235,226.359 244.097 C 226.359 243.960,226.140 243.848,225.874 243.848 C 225.607 243.848,225.319 243.735,225.234 243.598 C 225.148 243.458,223.987 243.348,222.611 243.348 C 221.234 243.348,220.074 243.458,219.988 243.598 C 219.887 243.760,213.702 243.848,202.249 243.848 C 190.795 243.848,184.610 243.760,184.510 243.598 C 184.416 243.445,182.508 243.348,179.623 243.348 C 176.635 243.348,174.891 243.440,174.891 243.598 " stroke="none" fill="#fc544c" fill-rule="evenodd"></path><path id="path1" d="" stroke="none" fill="#100544c" fill-rule="evenodd"></path><path id="path2" d="" stroke="none" fill="#100544c" fill-rule="evenodd"></path><path id="path3" d="" stroke="none" fill="#100544c" fill-rule="evenodd"></path><path id="path4" d="" stroke="none" fill="#100544c" fill-rule="evenodd"></path></g></svg>