<?xml version="1.0" encoding="UTF-8"?>
<svg xmlns="http://www.w3.org/2000/svg" xmlns:xlink="http://www.w3.org/1999/xlink" width="64px" height="64px" viewBox="0 0 64 64" version="1.1">
<g id="surface1">
<path style=" stroke:none;fill-rule:evenodd;fill:rgb(98.431373%,32.941176%,29.803922%);fill-opacity:1;" d="M 30.03125 13.605469 C 15.1875 15.230469 9.8125 34.691406 21.601562 44.136719 C 32.386719 52.78125 48.140625 44.765625 48.15625 30.625 C 48.160156 22.1875 42.601562 15.355469 34.4375 13.773438 C 33.613281 13.613281 30.898438 13.507812 30.03125 13.605469 M 24.484375 19.664062 C 25.292969 20.164062 25.4375 20.730469 25.179688 22.414062 C 23.867188 31.097656 31.296875 38.691406 39.75 37.304688 C 41.246094 37.058594 41.8125 37.226562 42.296875 38.050781 C 42.902344 39.082031 42.195312 40.351562 40.09375 41.996094 C 31.949219 48.375 20.242188 43.855469 18.046875 33.484375 L 17.847656 32.53125 L 17.847656 30.625 C 17.84375 26.523438 19.136719 23.277344 21.898438 20.449219 C 22.917969 19.402344 23.683594 19.171875 24.484375 19.664062 "/>
<path style=" stroke:none;fill-rule:evenodd;fill:rgb(42.352941%,21.176471%,20.392157%);fill-opacity:1;" d="M 30.09375 13.070312 C 24.628906 13.574219 19.539062 16.96875 16.839844 21.90625 C 11.066406 32.460938 16.929688 45.535156 28.496094 47.90625 C 30.351562 48.285156 33.226562 48.300781 34.761719 47.9375 C 34.910156 47.902344 35.285156 47.816406 35.59375 47.742188 C 42.628906 46.097656 48.015625 39.722656 48.683594 32.25 C 49.667969 21.300781 40.730469 12.082031 30.09375 13.070312 M 34.21875 13.375 C 44.75 15.257812 51.015625 25.878906 47.675781 36.1875 C 45.277344 43.582031 38.203125 48.492188 30.652344 48 C 20.460938 47.339844 13.089844 37.511719 15.09375 27.25 C 16.578125 19.660156 22.589844 14.066406 30.15625 13.226562 C 30.875 13.148438 33.484375 13.242188 34.21875 13.375 M 23.019531 19.902344 C 22.5625 20.101562 21.136719 21.703125 20.34375 22.90625 C 17.8125 26.753906 17.441406 32.386719 19.441406 36.667969 C 23.445312 45.246094 34.429688 47.25 41.132812 40.625 C 41.984375 39.78125 42.125 39.542969 42.125 38.921875 C 42.125 37.695312 41.484375 37.382812 39.621094 37.6875 C 32.878906 38.804688 26.121094 33.792969 24.914062 26.78125 C 24.628906 25.148438 24.601562 23.9375 24.808594 22.539062 C 25.066406 20.808594 24.941406 20.257812 24.207031 19.882812 C 24.019531 19.785156 23.261719 19.800781 23.019531 19.902344 M 23.941406 19.980469 C 24.0625 20.003906 24.265625 20.136719 24.441406 20.308594 C 24.847656 20.699219 24.867188 20.84375 24.683594 22.15625 C 23.367188 31.433594 31.109375 39.402344 39.90625 37.820312 C 41.070312 37.613281 41.445312 37.691406 41.816406 38.238281 C 42.335938 38.996094 41.753906 40 39.933594 41.480469 C 35.871094 44.78125 30.050781 45.324219 25.4375 42.832031 C 17.984375 38.804688 15.953125 28.417969 21.332031 21.84375 C 22.671875 20.210938 23.199219 19.832031 23.941406 19.980469 "/>
<path style=" stroke:none;fill-rule:evenodd;fill:rgb(93.333333%,29.803922%,28.627451%);fill-opacity:1;" d="M 30.253906 13.441406 C 22.730469 14.167969 16.667969 19.878906 15.257812 27.5625 C 14.972656 29.113281 14.902344 30.433594 15.027344 31.90625 C 15.664062 39.386719 20.589844 45.40625 27.628906 47.304688 C 28.777344 47.613281 29.230469 47.679688 31.34375 47.835938 C 31.515625 47.851562 32.035156 47.835938 32.5 47.804688 C 46.285156 46.894531 53.230469 30.628906 44.519531 19.65625 C 41.101562 15.347656 35.554688 12.933594 30.253906 13.441406 M 34.4375 13.773438 C 44.632812 15.75 50.585938 26.113281 47.304688 36.179688 C 43.144531 48.9375 26.644531 51.726562 18.585938 41.03125 C 10.675781 30.53125 17.148438 15.015625 30.03125 13.605469 C 30.898438 13.507812 33.613281 13.613281 34.4375 13.773438 M 23.128906 19.507812 C 22.191406 19.792969 20.238281 22.160156 19.246094 24.214844 C 18.179688 26.414062 17.847656 27.949219 17.847656 30.625 L 17.847656 32.53125 L 18.046875 33.484375 C 20.242188 43.855469 31.949219 48.375 40.09375 41.996094 C 42.195312 40.351562 42.902344 39.082031 42.296875 38.050781 C 41.8125 37.226562 41.246094 37.058594 39.75 37.304688 C 31.296875 38.691406 23.867188 31.097656 25.179688 22.414062 C 25.390625 21.03125 25.351562 20.601562 24.980469 20.113281 C 24.558594 19.5625 23.78125 19.308594 23.128906 19.507812 M 24.382812 19.753906 C 25.136719 20.136719 25.289062 20.710938 25.050781 22.230469 C 23.664062 31.089844 31.332031 38.976562 39.84375 37.445312 C 41.558594 37.136719 42.339844 37.59375 42.339844 38.90625 C 42.339844 39.582031 42.246094 39.753906 41.378906 40.648438 C 37.289062 44.859375 31.027344 45.980469 25.816406 43.433594 C 17.171875 39.214844 15.207031 27.546875 21.964844 20.574219 C 22.957031 19.550781 23.574219 19.34375 24.382812 19.753906 "/>
<path style=" stroke:none;fill-rule:evenodd;fill:rgb(69.019608%,25.098039%,23.921569%);fill-opacity:1;" d="M 30.15625 13.226562 C 18.101562 14.5625 11.15625 27.664062 16.691406 38.625 C 20.820312 46.800781 30.316406 50.253906 38.480469 46.546875 C 46.546875 42.882812 50.515625 33.464844 47.621094 24.871094 C 45.761719 19.351562 41.207031 15.078125 35.714844 13.695312 C 34.078125 13.28125 31.566406 13.074219 30.15625 13.226562 M 34.3125 13.496094 C 42.714844 15.085938 48.414062 22.011719 48.402344 30.625 C 48.390625 45.921875 30.671875 53.640625 20 43 C 13.183594 36.207031 13.195312 24.949219 20.023438 18.175781 C 22.554688 15.667969 25.527344 14.132812 29.0625 13.507812 C 30.417969 13.265625 33.066406 13.261719 34.3125 13.496094 M 23.082031 19.753906 C 22.628906 19.890625 21.125 21.53125 20.289062 22.800781 C 17.003906 27.789062 17.351562 34.941406 21.101562 39.5625 C 23.835938 42.929688 27.339844 44.59375 31.6875 44.59375 C 35.128906 44.59375 37.535156 43.765625 40.09375 41.707031 C 42.191406 40.015625 42.734375 38.871094 41.902344 37.882812 C 41.511719 37.417969 40.996094 37.34375 39.71875 37.574219 C 31.351562 39.078125 23.574219 31.074219 24.933594 22.355469 C 25.171875 20.824219 25.066406 20.316406 24.425781 19.890625 C 24.140625 19.703125 23.476562 19.632812 23.082031 19.753906 M 24.207031 19.882812 C 24.941406 20.257812 25.066406 20.808594 24.808594 22.539062 C 24.347656 25.648438 25.144531 29.144531 26.933594 31.863281 C 29.757812 36.148438 34.835938 38.480469 39.621094 37.6875 C 41.484375 37.382812 42.125 37.695312 42.125 38.921875 C 42.125 40.3125 38.953125 42.859375 35.96875 43.867188 C 27.878906 46.597656 19.242188 41.046875 18.246094 32.476562 C 17.722656 27.976562 19.199219 23.585938 22.265625 20.542969 C 22.976562 19.835938 23.664062 19.601562 24.207031 19.882812 "/>
<path style=" stroke:none;fill-rule:evenodd;fill:rgb(83.137255%,28.235294%,26.666667%);fill-opacity:1;" d="M 30.0625 13.351562 C 27.941406 13.550781 24.929688 14.566406 23.195312 15.667969 C 15.476562 20.574219 12.714844 30.121094 16.652344 38.28125 C 22.089844 49.554688 36.832031 51.285156 44.660156 41.5625 C 48.378906 36.941406 49.460938 30.425781 47.453125 24.75 C 44.824219 17.3125 37.691406 12.636719 30.0625 13.351562 M 33.03125 13.441406 C 47.328125 14.789062 53.511719 32.648438 43.261719 42.984375 C 40.226562 46.042969 35.121094 48.125 31.34375 47.835938 C 29.230469 47.679688 28.777344 47.613281 27.628906 47.304688 C 21.277344 45.59375 16.609375 40.511719 15.285156 33.875 C 14.34375 29.148438 15.585938 23.890625 18.578125 19.96875 C 22.007812 15.46875 27.632812 12.929688 33.03125 13.441406 M 23.246094 19.617188 C 22.453125 19.78125 20.589844 21.914062 19.574219 23.8125 C 17.4375 27.816406 17.371094 32.894531 19.402344 37.03125 C 23.605469 45.59375 34.789062 47.433594 41.378906 40.648438 C 42.246094 39.753906 42.339844 39.582031 42.339844 38.90625 C 42.339844 37.59375 41.558594 37.136719 39.84375 37.445312 C 31.332031 38.976562 23.664062 31.089844 25.050781 22.230469 C 25.125 21.757812 25.1875 21.269531 25.1875 21.148438 C 25.1875 20.117188 24.28125 19.402344 23.246094 19.617188 M 24.425781 19.890625 C 25.066406 20.316406 25.171875 20.824219 24.933594 22.355469 C 23.574219 31.074219 31.351562 39.078125 39.71875 37.574219 C 41.511719 37.25 42.253906 37.644531 42.25 38.917969 C 42.242188 40.460938 38.628906 43.246094 35.46875 44.140625 C 33.605469 44.671875 30.777344 44.792969 29.003906 44.414062 C 19.992188 42.503906 15.363281 32.4375 19.605469 23.976562 C 20.390625 22.410156 22.410156 19.957031 23.082031 19.753906 C 23.476562 19.632812 24.140625 19.703125 24.425781 19.890625 "/>
</g>
</svg>
